<svg width="18" height="18" fill="none" xmlns="http://www.w3.org/2000/svg"><path fill-rule="evenodd" clip-rule="evenodd" d="M5.854 8.646a.5.5 0 10-.708.708l3.5 3.5a.5.5 0 00.708 0l3.5-3.5a.5.5 0 00-.708-.708L9.5 11.293V2.5a.5.5 0 00-1 0v8.793L5.854 8.646zM2.5 11a.5.5 0 00-1 0v3c0 .33.095.814.394 1.23.318.44.843.77 1.606.77h11c.33 0 .814-.095 1.23-.394.44-.318.77-.843.77-1.606v-3a.5.5 0 00-1 0v3c0 .437-.17.662-.355.794-.209.15-.475.206-.645.206h-11c-.437 0-.662-.17-.794-.355A1.177 1.177 0 012.5 14v-3z" fill="#EA0229"/></svg>