<svg width="18" height="18" fill="none" xmlns="http://www.w3.org/2000/svg"><path fill-rule="evenodd" clip-rule="evenodd" d="M4 1.5a.5.5 0 01.5-.5h11a.5.5 0 01.5.5V15a.5.5 0 01-.5.5H14v1a.5.5 0 01-.5.5h-11a.5.5 0 01-.5-.5V3a.5.5 0 01.5-.5H4v-1zm11 13h-1V6a.5.5 0 00-.146-.354l-3-3A.5.5 0 0010.5 2.5H5V2h10v12.5zM3 3.5h7V6a.5.5 0 00.5.5H13V16H3V3.5zm8 .707L12.293 5.5H11V4.207zM5.5 12a.5.5 0 000 1H8a.5.5 0 000-1H5.5zM5 10.5a.5.5 0 01.5-.5h5a.5.5 0 010 1h-5a.5.5 0 01-.5-.5zM5.5 8a.5.5 0 000 1h5a.5.5 0 000-1h-5z" fill="#EA0229"/></svg>