<svg width="164" height="30" fill="none" xmlns="http://www.w3.org/2000/svg"><path d="M16 0a15 15 0 110 30v-6.005a8.995 8.995 0 100-17.99V0z" fill="#EA0229"/><path d="M15 0a15 15 0 000 30v-6.005a8.995 8.995 0 110-17.99V0z" fill="#323E47"/><path d="M22 15l-6 3.464v-6.928L22 15z" fill="#EA0229"/><path d="M118.001 9v12h-3.096v-9.096h-4.776V21h-3.096V9h10.968zm9.821-.336c1.616 0 2.992.616 4.128 1.848 1.152 1.216 1.728 2.712 1.728 4.488 0 1.776-.576 3.28-1.728 4.512-1.136 1.216-2.512 1.824-4.128 1.824-1.68 0-2.976-.584-3.888-1.752V25.8h-3.096V9h3.096v1.416c.912-1.168 2.208-1.752 3.888-1.752zm-2.952 8.784c.624.624 1.416.936 2.376.936s1.752-.312 2.376-.936c.64-.64.96-1.456.96-2.448s-.32-1.8-.96-2.424c-.624-.64-1.416-.96-2.376-.96s-1.752.32-2.376.96c-.624.624-.936 1.432-.936 2.424s.312 1.808.936 2.448zm21.215 2.064c-1.232 1.216-2.736 1.824-4.512 1.824-1.776 0-3.28-.608-4.512-1.824-1.216-1.232-1.824-2.736-1.824-4.512 0-1.776.608-3.272 1.824-4.488 1.232-1.232 2.736-1.848 4.512-1.848 1.776 0 3.28.616 4.512 1.848 1.232 1.216 1.848 2.712 1.848 4.488 0 1.776-.616 3.28-1.848 4.512zm-6.84-2.136c.624.624 1.4.936 2.328.936.928 0 1.704-.312 2.328-.936.624-.624.936-1.416.936-2.376s-.312-1.752-.936-2.376c-.624-.624-1.4-.936-2.328-.936-.928 0-1.704.312-2.328.936-.608.624-.912 1.416-.912 2.376s.304 1.752.912 2.376zM162.591 9v12h-3v-7.008l-3.048 4.8h-.384l-3.072-4.848V21h-2.976V9h3.048l3.192 5.04L159.543 9h3.048z" fill="#323E47"/><path d="M40.832 8.664c1.824 0 3.32.592 4.488 1.776 1.184 1.168 1.776 2.688 1.776 4.56 0 1.872-.592 3.4-1.776 4.584-1.168 1.168-2.672 1.752-4.512 1.752-1.232 0-2.336-.28-3.312-.84-.976-.576-1.704-1.336-2.184-2.28l2.616-1.512c.208.496.568.896 1.08 1.2.512.304 1.128.456 1.848.456.672 0 1.264-.176 1.776-.528a3.176 3.176 0 001.152-1.44h-4.08v-2.784h4.08a3.033 3.033 0 00-1.152-1.416c-.512-.368-1.104-.552-1.776-.552-1.408 0-2.376.544-2.904 1.632l-2.616-1.512a5.752 5.752 0 012.208-2.256c.976-.56 2.072-.84 3.288-.84zM59.298 9v12h-3.096v-9.024H52.89v4.008c0 3.712-1.688 5.384-5.064 5.016v-2.904c.64.16 1.128.056 1.464-.312.336-.384.504-1.04.504-1.968V9h9.504zm13.03 10.512c-1.233 1.216-2.737 1.824-4.513 1.824-1.775 0-3.28-.608-4.511-1.824-1.217-1.232-1.825-2.736-1.825-4.512 0-1.776.608-3.272 1.825-4.488 1.231-1.232 2.736-1.848 4.511-1.848 1.776 0 3.28.616 4.513 1.848 1.231 1.216 1.847 2.712 1.847 4.488 0 1.776-.615 3.28-1.847 4.512zm-6.84-2.136c.624.624 1.4.936 2.328.936.927 0 1.703-.312 2.328-.936.623-.624.935-1.416.935-2.376s-.311-1.752-.935-2.376c-.625-.624-1.4-.936-2.329-.936-.927 0-1.703.312-2.328.936-.608.624-.911 1.416-.911 2.376s.303 1.752.912 2.376zM87.418 21h-3.6l-4.368-5.448V21h-3.097V9h3.097v5.28L83.576 9h3.697l-4.825 5.928L87.418 21zm6.39.336c-1.808 0-3.32-.608-4.536-1.824-1.2-1.216-1.8-2.72-1.8-4.512 0-1.792.6-3.296 1.8-4.512C90.488 9.272 92 8.664 93.808 8.664c1.168 0 2.232.28 3.192.84.96.56 1.688 1.312 2.184 2.256l-2.664 1.56a2.697 2.697 0 00-1.104-1.176 3.11 3.11 0 00-1.632-.432c-.928 0-1.696.312-2.304.936-.608.608-.912 1.392-.912 2.352 0 .944.304 1.728.912 2.352.608.608 1.376.912 2.304.912.624 0 1.176-.136 1.656-.408.496-.288.864-.68 1.104-1.176l2.688 1.536A6.1 6.1 0 0197 20.496c-.96.56-2.024.84-3.192.84z" fill="#EA0229"/></svg>