<svg width="18" height="18" fill="none" xmlns="http://www.w3.org/2000/svg"><path fill-rule="evenodd" clip-rule="evenodd" d="M9.5 16.93c.722-.203 1.492-.848 2.161-2.052.395-.71.723-1.568.956-2.534a17.239 17.239 0 00-3.117-.338v4.923zm-1 0v-4.924c-1.12.025-2.17.138-3.118.335.233.967.562 1.827.957 2.537.669 1.204 1.44 1.85 2.161 2.051zm1-5.925a18.3 18.3 0 013.314.359c.096-.593.157-1.217.178-1.864H9.5v1.505zM8.5 9.5v1.505a18.371 18.371 0 00-3.314.356A14.632 14.632 0 015.008 9.5H8.5zm1-1h3.492a14.674 14.674 0 00-.178-1.864 18.3 18.3 0 01-3.314.358V8.5zm-1-1.505V8.5H5.008c.021-.646.082-1.269.178-1.86 1.031.214 2.15.33 3.314.355zm1-1c1.12-.027 2.17-.14 3.117-.34-.233-.965-.561-1.823-.956-2.533-.668-1.204-1.44-1.85-2.161-2.051v4.923zm-1-4.924v4.923a17.318 17.318 0 01-3.118-.335c.233-.967.562-1.827.957-2.537.669-1.204 1.44-1.85 2.161-2.051zm5.287 10.534a15.6 15.6 0 00.205-2.105h2.993a7.953 7.953 0 01-.85 3.12c-.675-.425-1.47-.762-2.348-1.015zm.205-3.105h2.993a7.953 7.953 0 00-.85-3.12c-.675.425-1.47.762-2.348 1.015a15.6 15.6 0 01.205 2.105zm-9.78-2.101c-.112.67-.182 1.374-.204 2.101H1.015a7.953 7.953 0 01.848-3.119c.676.428 1.47.765 2.349 1.018zm-2.349 6.22A7.953 7.953 0 011.015 9.5h2.993c.022.727.092 1.43.204 2.101-.879.253-1.673.59-2.349 1.018zm13.764-8.101c-.572.364-1.26.662-2.04.894-.389-1.606-1.03-2.97-1.833-3.926a8.024 8.024 0 013.873 3.032zm-11.215.898c-.78-.232-1.468-.53-2.04-.897a8.024 8.024 0 013.875-3.033c-.805.957-1.446 2.322-1.835 3.93zm7.342 11.098c.803-.957 1.444-2.32 1.833-3.926.78.232 1.468.53 2.04.894a8.023 8.023 0 01-3.873 3.032zm-5.507 0A8.024 8.024 0 012.37 13.48c.573-.366 1.26-.665 2.041-.897.389 1.608 1.03 2.973 1.835 3.93zM9 0a9 9 0 110 18A9 9 0 019 0z" fill="#EA0229"/></svg>