<svg width="18" height="18" fill="none" xmlns="http://www.w3.org/2000/svg"><path fill-rule="evenodd" clip-rule="evenodd" d="M17 9A8 8 0 111 9a8 8 0 0116 0zm1 0A9 9 0 110 9a9 9 0 0118 0zM6.172 12.536l-.708-.707-1.414 1.414.707.707 1.415-1.414zm5.656-7.072l1.415-1.414.707.707-1.414 1.415-.708-.708zm.708 6.364l-.708.708 1.415 1.414.707-.707-1.414-1.415zM5.464 6.173L4.05 4.757l.707-.707 1.415 1.414-.708.708zM4.5 8.5h-2v1h2v-1zm9 0h2v1h-2v-1zm-5 5v2h1v-2h-1zm0-10v-1h1v6.293l1.354 1.353-.708.708-1.5-1.5-.146-.147V3.5z" fill="#EA0229"/></svg>