<svg width="18" height="18" fill="none" xmlns="http://www.w3.org/2000/svg"><path fill-rule="evenodd" clip-rule="evenodd" d="M3 1h4v14H3V1zM2 1a1 1 0 011-1h4a1 1 0 011 1v2h8.5A1.5 1.5 0 0118 4.5v12a1.5 1.5 0 01-1.5 1.5h-15A1.5 1.5 0 010 16.5v-12A1.5 1.5 0 011.5 3H2V1zm0 3h-.5a.5.5 0 00-.5.5v12a.5.5 0 00.5.5h15a.5.5 0 00.5-.5v-12a.5.5 0 00-.5-.5H8v11a1 1 0 01-1 1H3a1 1 0 01-1-1V4zm4 10H4v-1h2v1zM4 2.5h2v-1H4v1zM16 6H9V5h7v1zm0 8h-1v1h1v-1zm-4 0h1v1h-1v-1zm-2 0H9v1h1v-1zm5-3h1v1h-1v-1zm-2 0h-1v1h1v-1zm-4 0h1v1H9v-1zm7-3h-1v1h1V8zm-4 0h1v1h-1V8zm-2 0H9v1h1V8z" fill="#EA0229"/></svg>