<svg width="18" height="18" fill="none" xmlns="http://www.w3.org/2000/svg"><path fill-rule="evenodd" clip-rule="evenodd" d="M8.5 16.93v-4.924c-1.12.025-2.17.138-3.118.335.233.967.562 1.827.957 2.537.669 1.204 1.44 1.85 2.161 2.051zm1-4.924v4.923c.722-.202 1.492-.847 2.161-2.05.395-.71.723-1.569.956-2.535a17.239 17.239 0 00-3.117-.338zm0-1V6.994a18.3 18.3 0 003.314-.358C12.934 7.38 13 8.173 13 9s-.066 1.62-.186 2.364a18.3 18.3 0 00-3.314-.359zm-1-5.012V1.071c-.722.202-1.492.847-2.161 2.05-.395.711-.724 1.57-.957 2.538.948.197 1.998.31 3.118.335zm1 0a17.29 17.29 0 003.117-.338c-.233-.966-.561-1.824-.956-2.534-.668-1.204-1.44-1.85-2.161-2.051v4.923zm-1 5.011v-4.01a18.367 18.367 0 01-3.314-.356C5.066 7.382 5 8.174 5 9c0 .826.066 1.618.186 2.36a18.371 18.371 0 013.314-.355zM14 9c0-.906-.074-1.78-.213-2.605.879-.253 1.673-.59 2.349-1.015A7.966 7.966 0 0117 9a7.966 7.966 0 01-.864 3.62c-.676-.425-1.47-.762-2.349-1.015.139-.825.213-1.7.213-2.605zm-.413-3.588c.78-.232 1.468-.53 2.04-.894a8.024 8.024 0 00-3.873-3.032c.803.957 1.444 2.32 1.833 3.926zM2.37 4.52c.573.366 1.26.665 2.041.897.389-1.608 1.03-2.973 1.835-3.93A8.024 8.024 0 002.37 4.52zM4.212 6.4c-.879-.253-1.673-.59-2.349-1.018A7.966 7.966 0 001 9a7.97 7.97 0 00.863 3.619c.676-.428 1.47-.765 2.349-1.018A15.787 15.787 0 014 9c0-.904.074-1.778.212-2.601zm9.375 6.189c-.389 1.607-1.03 2.97-1.833 3.926a8.023 8.023 0 003.873-3.032c-.572-.364-1.26-.662-2.04-.894zM2.37 13.48a8.024 8.024 0 003.876 3.033c-.805-.957-1.446-2.322-1.835-3.93-.78.232-1.468.53-2.04.897zM18 9A9 9 0 100 9a9 9 0 0018 0z" fill="#EA0229"/></svg>